<svg width="60" height="60" viewBox="0 0 60 60" fill="none" xmlns="http://www.w3.org/2000/svg">
<circle cx="30" cy="30" r="30" fill="#FECF02" fill-opacity="0.1"/>
<path d="M24.692 24.0694L23.7494 23.1267M28.64 40.9254L18.9094 31.1947C18.416 30.7014 18.136 30.0347 18.1267 29.3387L18 19.3534C17.9973 19.1749 18.0305 18.9977 18.0976 18.8323C18.1646 18.6669 18.2642 18.5166 18.3904 18.3904C18.5166 18.2642 18.6669 18.1646 18.8323 18.0976C18.9977 18.0305 19.1749 17.9973 19.3534 18L29.3387 18.1267C30.0359 18.1349 30.7021 18.4159 31.1947 18.9094L40.9254 28.64C41.824 29.5374 42.5147 31.252 41.4907 32.276L32.2774 41.4894C31.252 42.5147 29.5374 41.8227 28.64 40.9254Z" stroke="#FFCD29" stroke-width="1.5" stroke-linecap="round" stroke-linejoin="round"/>
</svg>
