<svg width="60" height="60" viewBox="0 0 60 60" fill="none" xmlns="http://www.w3.org/2000/svg">
<circle cx="30" cy="30" r="30" fill="#FECF02" fill-opacity="0.1"/>
<path d="M26 40.6667C20.972 39.5093 18 34.9027 18 30.68C18 25.6587 22.4933 20.6973 25.648 17.8333C26.4742 17.0828 27.5504 16.6669 28.6667 16.6669C29.7829 16.6669 30.8591 17.0828 31.6853 17.8333C33.6947 19.6573 36.0987 22.3333 37.668 25.3333" stroke="#FFCD29" stroke-width="1.5" stroke-linecap="round"/>
<path d="M36.6667 34.6667C34.6667 36 31.3334 38.6667 28.6667 43.3334M31.3334 39.3334C27.7814 31.52 35.1134 28.9814 40.5667 28.688C41.2254 28.652 41.5534 28.6347 41.7907 28.8627C42.0267 29.0894 42.0121 29.416 41.9854 30.0654C41.7601 35.4694 39.3267 42.8094 31.3334 39.3334Z" stroke="#FFCD29" stroke-width="1.5" stroke-linecap="round" stroke-linejoin="round"/>
</svg>
