<svg width="60" height="60" viewBox="0 0 60 60" fill="none" xmlns="http://www.w3.org/2000/svg">
<circle cx="30" cy="30" r="30" fill="#FECF02" fill-opacity="0.1"/>
<path fill-rule="evenodd" clip-rule="evenodd" d="M28.4 14.8C28.5716 14.7997 28.7388 14.8546 28.8768 14.9566C29.0148 15.0586 29.1163 15.2023 29.1664 15.3664L32.2512 25.4992L41.4753 28.8704C41.6274 28.9261 41.759 29.0267 41.8526 29.1588C41.9463 29.291 41.9977 29.4485 42 29.6104C42.0022 29.7724 41.9553 29.9312 41.8653 30.0659C41.7753 30.2006 41.6465 30.3049 41.496 30.3648L32.3328 34.0048L29.1664 44.6288C29.1171 44.7937 29.0159 44.9383 28.8778 45.0411C28.7397 45.1439 28.5722 45.1994 28.4 45.1994C28.2279 45.1994 28.0604 45.1439 27.9223 45.0411C27.7842 44.9383 27.683 44.7937 27.6336 44.6288L24.4672 34.0048L15.304 30.3648C15.1536 30.3049 15.0248 30.2006 14.9348 30.0659C14.8448 29.9312 14.7979 29.7724 14.8001 29.6104C14.8024 29.4485 14.8538 29.291 14.9474 29.1588C15.0411 29.0267 15.1727 28.9261 15.3248 28.8704L24.5488 25.4992L27.6352 15.3664C27.6853 15.2025 27.7866 15.0591 27.9243 14.9571C28.0619 14.8551 28.2287 14.8001 28.4 14.8ZM28.4 18.3456L25.9632 26.3456C25.9271 26.4641 25.8639 26.5727 25.7787 26.6626C25.6935 26.7526 25.5885 26.8215 25.472 26.864L17.8448 29.6544L25.4192 32.6624C25.5315 32.7072 25.6321 32.7768 25.7136 32.866C25.795 32.9552 25.8552 33.0618 25.8896 33.1776L28.4016 41.6L30.9104 33.1776C30.9449 33.0618 31.0051 32.9552 31.0865 32.866C31.168 32.7768 31.2686 32.7072 31.3808 32.6624L38.9552 29.6544L31.328 26.8672C31.2116 26.8247 31.1066 26.7558 31.0214 26.6658C30.9361 26.5759 30.873 26.4673 30.8368 26.3488L28.4 18.3456Z" fill="#FFCD29"/>
<path d="M40.8001 44.592C40.6401 44.592 40.4961 44.464 40.4801 44.304C40.1921 41.392 39.9681 40.464 37.2961 40.208C37.1361 40.192 37.0081 40.048 37.0081 39.888C37.0081 39.728 37.1361 39.584 37.2961 39.568C40.0321 39.312 40.1921 38.608 40.4801 35.696C40.4801 35.536 40.6401 35.408 40.8001 35.408C40.9601 35.408 41.1041 35.536 41.1201 35.696C41.4081 38.608 41.5841 39.312 44.3041 39.568C44.4641 39.584 44.5921 39.728 44.5921 39.888C44.5921 40.048 44.4641 40.192 44.3041 40.208C41.6161 40.464 41.4081 41.392 41.1201 44.32C41.1201 44.48 40.9761 44.608 40.8001 44.608V44.592Z" fill="#FFCD29"/>
</svg>
