<svg width="60" height="60" viewBox="0 0 60 60" fill="none" xmlns="http://www.w3.org/2000/svg">
<circle cx="30" cy="30" r="30" fill="#FECF02" fill-opacity="0.1"/>
<path d="M25.9999 19.3333L29.3333 26.6666L36.6666 30L29.3333 33.3333L25.9999 40.6666L22.6666 33.3333L15.3333 30L22.6666 26.6666L25.9999 19.3333ZM25.9999 25.7733L24.6666 28.6666L21.7733 30L24.6666 31.3333L25.9999 34.2266L27.3333 31.3333L30.2266 30L27.3333 28.6666L25.9999 25.7733ZM39.3333 26L37.6533 22.3466L33.9999 20.6666L37.6533 19L39.3333 15.3333L40.9999 19L44.6666 20.6666L40.9999 22.3466L39.3333 26ZM39.3333 44.6666L37.6533 41.0133L33.9999 39.3333L37.6533 37.6666L39.3333 34L40.9999 37.6666L44.6666 39.3333L40.9999 41.0133L39.3333 44.6666Z" fill="#FFCD29"/>
</svg>
