<svg width="25" height="25" viewBox="0 0 25 25" fill="none" xmlns="http://www.w3.org/2000/svg">
<path d="M12.2837 11.772C11.605 11.772 10.9541 11.5024 10.4741 11.0225C9.99421 10.5426 9.72459 9.89163 9.72459 9.21291C9.72459 8.53419 9.99421 7.88327 10.4741 7.40334C10.9541 6.92341 11.605 6.65379 12.2837 6.65379C12.9624 6.65379 13.6134 6.92341 14.0933 7.40334C14.5732 7.88327 14.8428 8.53419 14.8428 9.21291C14.8428 9.54898 14.7766 9.88176 14.648 10.1922C14.5194 10.5027 14.3309 10.7849 14.0933 11.0225C13.8556 11.2601 13.5735 11.4486 13.263 11.5772C12.9526 11.7058 12.6198 11.772 12.2837 11.772ZM12.2837 2.04736C10.3833 2.04736 8.56071 2.8023 7.2169 4.1461C5.8731 5.48991 5.11816 7.31249 5.11816 9.21291C5.11816 14.5871 12.2837 22.5204 12.2837 22.5204C12.2837 22.5204 19.4493 14.5871 19.4493 9.21291C19.4493 7.31249 18.6943 5.48991 17.3505 4.1461C16.0067 2.8023 14.1841 2.04736 12.2837 2.04736Z" fill="#FFCD29"/>
</svg>
