<svg width="25" height="25" viewBox="0 0 25 25" fill="none" xmlns="http://www.w3.org/2000/svg">
<path d="M4.09466 20.4729C3.53166 20.4729 3.04986 20.2726 2.64927 19.872C2.24868 19.4714 2.04805 18.9893 2.04736 18.4256V6.14178C2.04736 5.57877 2.248 5.09698 2.64927 4.69639C3.05054 4.2958 3.53234 4.09516 4.09466 4.09448H20.4731C21.0361 4.09448 21.5182 4.29512 21.9195 4.69639C22.3208 5.09766 22.521 5.57946 22.5204 6.14178V18.4256C22.5204 18.9886 22.3201 19.4707 21.9195 19.872C21.5189 20.2733 21.0368 20.4736 20.4731 20.4729H4.09466ZM12.2839 13.3073L20.4731 8.18908V6.14178L12.2839 11.26L4.09466 6.14178V8.18908L12.2839 13.3073Z" fill="#FFCD29"/>
</svg>
