<svg width="25" height="25" viewBox="0 0 25 25" fill="none" xmlns="http://www.w3.org/2000/svg">
<path d="M6.77666 11.0453C8.25071 13.9422 10.6256 16.3068 13.5225 17.7911L15.7745 15.5391C16.0509 15.2627 16.4604 15.1706 16.8187 15.2934C17.9651 15.6722 19.2038 15.8769 20.4731 15.8769C21.0361 15.8769 21.4967 16.3375 21.4967 16.9006V20.4731C21.4967 21.0361 21.0361 21.4967 20.4731 21.4967C10.861 21.4967 3.07104 13.7068 3.07104 4.09469C3.07104 3.53169 3.53169 3.07104 4.09469 3.07104H7.67747C8.24048 3.07104 8.70112 3.53169 8.70112 4.09469C8.70112 5.37426 8.90585 6.60264 9.2846 7.74912C9.3972 8.1074 9.31531 8.50663 9.02869 8.79325L6.77666 11.0453Z" fill="#FFCD29"/>
</svg>
