<svg width="31" height="31" viewBox="0 0 31 31" fill="none" xmlns="http://www.w3.org/2000/svg">
<path d="M6.96028 4.64012C6.34496 4.64012 5.75484 4.88456 5.31974 5.31965C4.88465 5.75475 4.64021 6.34487 4.64021 6.96018V10.0536C4.64021 10.2587 4.55874 10.4554 4.4137 10.6004C4.26867 10.7455 4.07197 10.827 3.86686 10.827C3.66175 10.827 3.46505 10.7455 3.32002 10.6004C3.17498 10.4554 3.09351 10.2587 3.09351 10.0536V6.96018C3.09351 5.93465 3.5009 4.95113 4.22606 4.22597C4.95122 3.5008 5.93474 3.09341 6.96028 3.09341H10.0537C10.2588 3.09341 10.4555 3.17489 10.6005 3.31992C10.7456 3.46496 10.827 3.66166 10.827 3.86677C10.827 4.07187 10.7456 4.26858 10.6005 4.41361C10.4555 4.55864 10.2588 4.64012 10.0537 4.64012H6.96028ZM6.96028 26.294C6.34496 26.294 5.75484 26.0496 5.31974 25.6145C4.88465 25.1794 4.64021 24.5893 4.64021 23.974V20.8806C4.64021 20.6754 4.55874 20.4787 4.4137 20.3337C4.26867 20.1887 4.07197 20.1072 3.86686 20.1072C3.66175 20.1072 3.46505 20.1887 3.32002 20.3337C3.17498 20.4787 3.09351 20.6754 3.09351 20.8806V23.974C3.09351 24.9995 3.5009 25.983 4.22606 26.7082C4.95122 27.4334 5.93474 27.8407 6.96028 27.8407H10.0537C10.2588 27.8407 10.4555 27.7593 10.6005 27.6142C10.7456 27.4692 10.827 27.2725 10.827 27.0674C10.827 26.8623 10.7456 26.6656 10.6005 26.5205C10.4555 26.3755 10.2588 26.294 10.0537 26.294H6.96028ZM26.2941 6.96018C26.2941 6.34487 26.0497 5.75475 25.6146 5.31965C25.1795 4.88456 24.5894 4.64012 23.9741 4.64012H20.8806C20.6755 4.64012 20.4788 4.55864 20.3338 4.41361C20.1888 4.26858 20.1073 4.07187 20.1073 3.86677C20.1073 3.66166 20.1888 3.46496 20.3338 3.31992C20.4788 3.17489 20.6755 3.09341 20.8806 3.09341H23.9741C24.9996 3.09341 25.9831 3.5008 26.7083 4.22597C27.4334 4.95113 27.8408 5.93465 27.8408 6.96018V10.0536C27.8408 10.2587 27.7594 10.4554 27.6143 10.6004C27.4693 10.7455 27.2726 10.827 27.0675 10.827C26.8624 10.827 26.6657 10.7455 26.5206 10.6004C26.3756 10.4554 26.2941 10.2587 26.2941 10.0536V6.96018ZM24.5695 26.2167C24.3778 26.2683 24.1787 26.294 23.9725 26.294H20.8806C20.6755 26.294 20.4788 26.3755 20.3338 26.5205C20.1888 26.6656 20.1073 26.8623 20.1073 27.0674C20.1073 27.2725 20.1888 27.4692 20.3338 27.6142C20.4788 27.7593 20.6755 27.8407 20.8806 27.8407H23.9741C24.9996 27.8407 25.9831 27.4334 26.7083 26.7082C27.4334 25.983 27.8408 24.9995 27.8408 23.974V20.8806C27.8408 20.6754 27.7594 20.4787 27.6143 20.3337C27.4693 20.1887 27.2726 20.1072 27.0675 20.1072C26.8624 20.1072 26.6657 20.1887 26.5206 20.3337C26.3756 20.4787 26.2941 20.6754 26.2941 20.8806V23.974C26.2942 24.4856 26.1251 24.983 25.8132 25.3886C25.5013 25.7942 25.0641 26.0854 24.5695 26.2167ZM7.73208 24.7473H6.95873C6.79852 24.7474 6.64223 24.6978 6.51146 24.6053C6.38068 24.5127 6.28187 24.3818 6.22868 24.2307C6.35078 23.5098 6.72428 22.8555 7.28291 22.3838C7.84154 21.9121 8.54919 21.6535 9.28034 21.6539H21.654C22.3844 21.6538 23.0914 21.9121 23.6496 22.3831C24.2078 22.8542 24.5814 23.5076 24.7041 24.2276C24.6514 24.3796 24.5525 24.5113 24.4214 24.6044C24.2903 24.6976 24.1334 24.7475 23.9725 24.7473H23.1992C23.1992 24.3371 23.0362 23.9437 22.7461 23.6536C22.4561 23.3636 22.0627 23.2006 21.6525 23.2006H9.28034C8.87013 23.2006 8.47671 23.3636 8.18665 23.6536C7.89659 23.9437 7.73208 24.3371 7.73208 24.7473ZM19.3339 13.147C19.3339 12.1215 18.9265 11.138 18.2014 10.4128C17.4762 9.68764 16.4927 9.28025 15.4672 9.28025C14.4416 9.28025 13.4581 9.68764 12.733 10.4128C12.0078 11.138 11.6004 12.1215 11.6004 13.147C11.6004 14.1725 12.0078 15.1561 12.733 15.8812C13.4581 16.6064 14.4416 17.0138 15.4672 17.0138C16.4927 17.0138 17.4762 16.6064 18.2014 15.8812C18.9265 15.1561 19.3339 14.1725 19.3339 13.147ZM20.8806 13.147C20.8806 13.8579 20.7406 14.5619 20.4686 15.2187C20.1965 15.8755 19.7978 16.4722 19.2951 16.9749C18.7924 17.4776 18.1956 17.8764 17.5388 18.1484C16.882 18.4205 16.1781 18.5605 15.4672 18.5605C14.7563 18.5605 14.0523 18.4205 13.3955 18.1484C12.7387 17.8764 12.142 17.4776 11.6393 16.9749C11.1366 16.4722 10.7378 15.8755 10.4658 15.2187C10.1937 14.5619 10.0537 13.8579 10.0537 13.147C10.0537 11.7113 10.624 10.3343 11.6393 9.31911C12.6545 8.30389 14.0314 7.73354 15.4672 7.73354C16.9029 7.73354 18.2799 8.30389 19.2951 9.31911C20.3103 10.3343 20.8806 11.7113 20.8806 13.147Z" fill="white"/>
</svg>
