<svg width="25" height="25" viewBox="0 0 25 25" fill="none" xmlns="http://www.w3.org/2000/svg">
<path d="M19.3339 19.3339C20.0175 19.3339 20.6732 19.6054 21.1567 20.0889C21.6401 20.5723 21.9117 21.228 21.9117 21.9117C21.9117 22.5954 21.6401 23.2511 21.1567 23.7345C20.6732 24.218 20.0175 24.4895 19.3339 24.4895C18.6502 24.4895 17.9945 24.218 17.511 23.7345C17.0276 23.2511 16.756 22.5954 16.756 21.9117C16.756 21.228 17.0276 20.5723 17.511 20.0889C17.9945 19.6054 18.6502 19.3339 19.3339 19.3339ZM19.3339 20.6228C18.992 20.6228 18.6642 20.7586 18.4224 21.0003C18.1807 21.242 18.0449 21.5699 18.0449 21.9117C18.0449 22.2535 18.1807 22.5814 18.4224 22.8231C18.6642 23.0648 18.992 23.2006 19.3339 23.2006C19.6757 23.2006 20.0035 23.0648 20.2453 22.8231C20.487 22.5814 20.6228 22.2535 20.6228 21.9117C20.6228 21.5699 20.487 21.242 20.2453 21.0003C20.0035 20.7586 19.6757 20.6228 19.3339 20.6228ZM7.73354 19.3339C8.41723 19.3339 9.07291 19.6054 9.55635 20.0889C10.0398 20.5723 10.3114 21.228 10.3114 21.9117C10.3114 22.5954 10.0398 23.2511 9.55635 23.7345C9.07291 24.218 8.41723 24.4895 7.73354 24.4895C7.04985 24.4895 6.39417 24.218 5.91073 23.7345C5.42729 23.2511 5.15569 22.5954 5.15569 21.9117C5.15569 21.228 5.42729 20.5723 5.91073 20.0889C6.39417 19.6054 7.04985 19.3339 7.73354 19.3339ZM7.73354 20.6228C7.3917 20.6228 7.06385 20.7586 6.82213 21.0003C6.58041 21.242 6.44462 21.5699 6.44462 21.9117C6.44462 22.2535 6.58041 22.5814 6.82213 22.8231C7.06385 23.0648 7.3917 23.2006 7.73354 23.2006C8.07538 23.2006 8.40323 23.0648 8.64495 22.8231C8.88667 22.5814 9.02246 22.2535 9.02246 21.9117C9.02246 21.5699 8.88667 21.242 8.64495 21.0003C8.40323 20.7586 8.07538 20.6228 7.73354 20.6228ZM21.9117 3.86677H4.21478L7.50153 11.6003H18.0449C18.4703 11.6003 18.8441 11.3941 19.0761 11.0847L22.9428 5.92905C23.1104 5.70993 23.2006 5.43926 23.2006 5.15569C23.2006 4.81385 23.0648 4.48601 22.8231 4.24429C22.5814 4.00257 22.2535 3.86677 21.9117 3.86677ZM18.0449 12.8892H7.56598L6.57351 14.9L6.44462 15.4671C6.44462 15.8089 6.58041 16.1368 6.82213 16.3785C7.06385 16.6202 7.3917 16.756 7.73354 16.756H21.9117V18.0449H7.73354C7.04985 18.0449 6.39417 17.7733 5.91073 17.2899C5.42729 16.8065 5.15569 16.1508 5.15569 15.4671C5.15531 15.0297 5.2662 14.5995 5.47792 14.2168L6.40595 12.3221L1.72716 1.28892H0V0H2.57785L3.67343 2.57785H21.9117C22.5954 2.57785 23.2511 2.84944 23.7345 3.33288C24.218 3.81632 24.4895 4.47201 24.4895 5.15569C24.4895 5.80016 24.2704 6.3415 23.9095 6.77974L20.1588 11.7936C19.6947 12.451 18.9214 12.8892 18.0449 12.8892Z" fill="white"/>
</svg>
