<svg width="94" height="58" viewBox="0 0 94 58" fill="none" xmlns="http://www.w3.org/2000/svg">
<path fill-rule="evenodd" clip-rule="evenodd" d="M41.3936 12.02C42.3663 12.1688 43.3112 12.3981 44.2198 12.6997L50.1288 2.465C51.7662 3.20987 53.3178 4.11155 54.7657 5.14739L48.9799 15.1687C49.8158 15.7889 50.5884 16.4833 51.2848 17.2411L61.1585 11.5406C62.1957 12.9878 63.0959 14.5403 63.8414 16.1776L54.1915 21.749C54.6158 22.7569 54.9345 23.8152 55.1326 24.9128H65.2562L65.364 26.2062C65.4028 26.6836 65.3967 27.2135 65.4067 27.6944C65.4242 28.5532 65.4379 29.4113 65.4508 30.2701H60.4972L60.4308 30.1694L59.9762 29.4847H57.9756L57.5247 30.1955L57.4775 30.2701H55.1318C54.6647 32.8579 53.5308 35.2306 51.9052 37.2248L51.5986 36.1864L47.8984 36.4296L39.5786 17.2615L37.4385 16.9312L25.2281 36.1775L24.7299 36.1627C23.5282 34.4076 22.6847 32.4125 22.2972 30.2701H15.3106L15.2441 30.1694L14.7899 29.4847H12.7887L12.338 30.1955L12.2911 30.2701H11.2533C11.1687 29.3883 11.1238 28.4954 11.1238 27.5914C11.1238 26.6875 11.1687 25.7943 11.2533 24.9128H22.2969C22.4956 23.8152 22.8137 22.7565 23.238 21.7485L13.5887 16.1776C14.3341 14.5403 15.234 12.9878 16.2711 11.5406L26.1447 17.2411C26.8416 16.483 27.6137 15.7889 28.4496 15.1682L22.6643 5.14739C24.1123 4.11155 25.6639 3.20987 27.3012 2.465L33.2097 12.6991C34.1183 12.3975 35.0631 12.1688 36.0365 12.02V0.130123C36.918 0.0453148 37.8109 7.62939e-06 38.7151 7.62939e-06C39.6189 7.62939e-06 40.5121 0.0453148 41.3936 0.130123V12.02Z" fill="#FFCD29"/>
<path fill-rule="evenodd" clip-rule="evenodd" d="M32.2369 40.2646L37.0724 31.5487L41.4391 40.2646H32.2369ZM33.5643 26.9006L38.2724 19.2341L42.0287 28.0425L39.5515 26.0076L38.9138 26.714L37.9714 24.864L37.0505 27.9878L36.55 25.4266L35.1329 26.6945L35.081 25.5737L33.5643 26.9006ZM88.2613 41.3196L91.3718 41.1154L94 50.0143L86.81 51.0513L86.7734 47.2512H69.6862C71.6337 50.2561 73.178 52.6132 73.6963 53.3169L67.0161 57.2645C66.0377 55.6109 64.3172 52.6079 63.9796 52.0345L53.8239 52.6079C53.5542 53.0809 52.3396 55.712 51.5972 57.2977L45.1869 53.7218C45.5332 53.1331 46.8547 50.8936 48.575 47.9953L45.5957 48.4251L45.5544 44.0823L27.4712 43.8744L26.8871 48.4379L25.1711 48.2857C26.797 50.7889 28.0523 52.6965 28.5094 53.3169L21.8291 57.2645C20.8504 55.6109 19.1299 52.6079 18.7924 52.0345L8.63727 52.6079C8.36758 53.0809 7.15267 55.712 6.41085 57.2977L0 53.7218C1.0122 52.001 10.3578 36.1775 13.6308 31.0154H13.9681C15.7246 33.6646 18.4269 37.8506 21.0401 41.8984L22.1022 37.6154L26.0534 37.7333L38.1945 18.5966L38.5103 18.6455L46.9231 38.0282L50.4772 37.7941L51.8596 42.4772C54.5292 38.0072 57.3141 33.3865 58.8174 31.0154H59.155C61.0877 33.9315 64.1669 38.7083 67.0113 43.1144C67.0298 40.9046 67.0383 38.5955 67.0383 38.168V34.9378C67.0383 34.4304 66.949 26.7953 66.8893 26.0788H73.9071C73.8473 26.6163 73.7577 41.396 73.7577 41.9288V43.118L81.5219 42.5507V41.3064C81.5219 40.7988 81.4622 26.7353 81.4027 26.0788H88.3604C88.3306 26.7953 88.2412 35.1174 88.2412 35.8338V38.8248C88.2412 38.9638 88.2491 40.0089 88.2613 41.3196ZM55.9834 47.615C56.8604 45.7253 58.0412 43.2285 58.8512 41.6097C59.4582 42.9926 60.7401 45.3883 61.685 47.3115L55.9834 47.615ZM10.797 47.615C11.6741 45.7253 12.8546 43.2285 13.6646 41.6097C14.2718 42.9926 15.5537 45.3883 16.4984 47.3115L10.797 47.615Z" fill="#FFCD29"/>
</svg>
